<?xml version="1.0" encoding="UTF-8"?>
<svg version="1.1" xmlns="http://www.w3.org/2000/svg" width="500" height="500">
<path d="M0 0 C0.67337402 0.00725098 1.34674805 0.01450195 2.04052734 0.02197266 C41.49086089 0.5985319 83.29694711 14.60982987 115 38 C115.98226563 38.71929687 116.96453125 39.43859375 117.9765625 40.1796875 C121.00601323 42.42579741 124.00405677 44.70943074 127 47 C128.11178348 47.82838769 129.22376829 48.65650525 130.3359375 49.484375 C142.3417188 58.53412954 153.60609237 68.79087514 162.11328125 81.265625 C163.88496702 83.83328554 165.76393739 86.28333502 167.69995117 88.72851562 C201.85854791 131.98965674 214.71998411 189.27213834 209.22583008 243.51538086 C204.69844063 281.22472272 191.70892082 320.25677651 166.98046875 349.625 C165.05818921 351.93021885 163.24670828 354.30096158 161.4465332 356.70214844 C145.41413295 378.00406943 124.93699571 394.53186662 102 408 C101.09765625 408.56976563 100.1953125 409.13953125 99.265625 409.7265625 C67.73915703 429.23022489 28.07900051 437.45824332 -8.6875 437.4375 C-9.43501526 437.43790283 -10.18253052 437.43830566 -10.95269775 437.4387207 C-43.54184078 437.33898346 -76.93064756 429.82471058 -106 415 C-106.69254883 414.65437012 -107.38509766 414.30874023 -108.09863281 413.95263672 C-122.00107874 406.98806527 -134.15669482 398.26288958 -146.16210938 388.45727539 C-148.03443323 386.97269767 -149.95433648 385.57556847 -151.890625 384.17578125 C-156.65837017 380.62244 -160.81651824 376.52613937 -165 372.3125 C-166.19508179 371.11113403 -166.19508179 371.11113403 -167.41430664 369.88549805 C-172.95926123 364.23319597 -177.59152257 358.57535616 -182 352 C-182.85777515 350.84906119 -183.72291734 349.70359108 -184.59375 348.5625 C-191.27099774 339.79079287 -196.88620169 330.76056153 -202 321 C-202.35191406 320.33323242 -202.70382813 319.66646484 -203.06640625 318.97949219 C-205.48446795 314.36866789 -207.78424291 309.7112081 -210 305 C-210.52335937 303.89269531 -211.04671875 302.78539062 -211.5859375 301.64453125 C-221.59234555 278.64038152 -226.27573708 252.02328406 -227 227 C-227.02191406 226.30616211 -227.04382813 225.61232422 -227.06640625 224.89746094 C-227.59075119 205.61030605 -225.39104715 186.76689577 -221 168 C-220.7721582 167.00339355 -220.54431641 166.00678711 -220.30957031 164.97998047 C-214.6880494 140.86387853 -205.15948928 115.504058 -189.515625 95.90625 C-187.65048993 93.56041002 -185.92809424 91.12707302 -184.1875 88.6875 C-172.67312383 72.83881493 -159.88285113 58.5434293 -144 47 C-142.04058114 45.52227161 -140.08233655 44.04298543 -138.125 42.5625 C-118.59581112 27.96443131 -97.1170453 15.18031096 -73.12597656 9.50683594 C-70.43928787 8.8663254 -67.76361906 8.18497548 -65.0859375 7.5078125 C-54.12579697 4.76962805 -43.26394778 2.09372507 -32 1 C-30.90558594 0.89042969 -29.81117188 0.78085937 -28.68359375 0.66796875 C-19.12126328 -0.14792975 -9.58677224 -0.17827076 0 0 Z " fill="#27A5ED" transform="translate(259,32)"/>
<path d="M0 0 C0.92261627 -0.00570007 1.84523254 -0.01140015 2.79580688 -0.01727295 C4.74390536 -0.02667642 6.6920194 -0.0332383 8.64013672 -0.03710938 C11.5585674 -0.04673322 14.47626777 -0.07776748 17.39453125 -0.109375 C32.92959889 -0.19888077 47.93647199 0.97304897 62.6015625 6.515625 C63.43824463 6.82266357 64.27492676 7.12970215 65.13696289 7.44604492 C80.50449896 13.19901996 92.99160714 21.18433554 104.2265625 33.203125 C101.09726187 38.99697865 97.42451902 44.19006252 93.4765625 49.453125 C88.47961876 56.06544658 88.47961876 56.06544658 83.77734375 62.88671875 C79.12173426 69.92043918 79.12173426 69.92043918 74.6640625 71.328125 C70.61729681 70.00372895 69.15426028 68.3667573 66.359375 65.27734375 C50.74864965 50.09548449 27.16251619 46.94779595 6.40600586 46.95385742 C-5.61576766 47.13964524 -17.561049 49.64245835 -26.71875 57.97265625 C-32.98382134 64.91871361 -33.3820132 71.99924481 -33.1484375 81.01953125 C-32.7101361 88.05896486 -29.63721114 92.65668962 -24.6484375 97.453125 C-16.09689457 103.9543191 -5.96311392 106.43760511 4.3515625 108.703125 C5.6752314 109.00375454 6.99871506 109.30520078 8.32202148 109.60742188 C15.58494411 111.25152082 22.87136955 112.73612222 30.18920898 114.11645508 C52.34491827 118.3095849 75.21519608 124.64626203 92.2265625 140.203125 C93.17402344 141.03070313 93.17402344 141.03070313 94.140625 141.875 C107.11047319 153.87353797 113.41869547 171.12743117 114.41113281 188.41894531 C114.94137323 202.13271728 115.20953351 215.24088669 110.2265625 228.203125 C109.85273438 229.24984375 109.47890625 230.2965625 109.09375 231.375 C101.18449409 252.01239621 86.04820511 265.59501885 66.2890625 274.515625 C49.87072214 281.14540226 33.29591095 283.61148024 15.6640625 283.515625 C14.61516342 283.51289078 14.61516342 283.51289078 13.54507446 283.51010132 C1.8972757 283.45918977 -9.37549953 282.7134143 -20.7734375 280.203125 C-21.56459961 280.03151855 -22.35576172 279.85991211 -23.17089844 279.68310547 C-52.09833009 273.20136818 -76.80195339 259.8763289 -94.64453125 235.6640625 C-95.7734375 233.203125 -95.7734375 233.203125 -95.265625 231.2890625 C-93.20841321 228.4132743 -91.09943191 225.59456188 -88.8984375 222.828125 C-88.41810059 222.22033203 -87.93776367 221.61253906 -87.44287109 220.98632812 C-82.49998126 214.77860717 -77.35710214 208.74108652 -72.11425781 202.78515625 C-71.20178989 201.70853714 -70.32671134 200.59934932 -69.48730469 199.46484375 C-67.55601951 196.89381095 -66.36271396 195.36050384 -63.19921875 194.515625 C-59.73573986 195.49722288 -58.89341794 197.20879742 -56.9609375 200.203125 C-44.0731372 218.93594998 -23.79859796 229.93413756 -1.7734375 234.203125 C1.57938975 234.78924887 4.82657451 235.07647788 8.2265625 235.203125 C9.47695312 235.27789062 10.72734375 235.35265625 12.015625 235.4296875 C24.34056008 235.96031654 38.95343203 234.45657921 48.65234375 226 C55.85599682 217.77746796 58.68394074 209.09814757 58.48046875 198.2734375 C57.89131174 191.14916962 56.07046434 185.54812014 51.2265625 180.203125 C51.2265625 179.543125 51.2265625 178.883125 51.2265625 178.203125 C50.38158203 177.79126953 50.38158203 177.79126953 49.51953125 177.37109375 C48.01889916 176.60671727 46.53998762 175.79770692 45.08984375 174.94140625 C28.51997626 165.67953545 8.38851014 162.68719524 -9.93359375 158.53125 C-35.7996387 152.6610592 -60.9090881 143.96192976 -76.5234375 121.015625 C-87.58812147 102.44369682 -91.33433803 79.45940358 -86.2109375 58.328125 C-79.87592184 37.90545212 -67.38411587 22.53984414 -48.7734375 12.203125 C-33.26031722 4.30880033 -17.4496811 0.0857638 0 0 Z " fill="#FDFEFE" transform="translate(238.7734375,117.796875)"/>
<path d="M0 0 C5.21072128 0.49625917 8.92570395 2.45494287 13.3125 5.125 C21.54989559 9.96817518 30.09639627 13.57299411 39 17 C34.86850344 18.37716552 32.3193743 16.81559325 28.5 15.1875 C27.76402588 14.87997803 27.02805176 14.57245605 26.26977539 14.25561523 C17.23959852 10.38580997 8.61185821 5.71306365 0 1 C0 0.67 0 0.34 0 0 Z " fill="#DBF5EA" transform="translate(140,439)"/>
<path d="M0 0 C1 3 1 3 -0.546875 6.6171875 C-1.27109606 8.04166642 -2.00594254 9.46078119 -2.75 10.875 C-3.1109375 11.58269531 -3.471875 12.29039062 -3.84375 13.01953125 C-5.76810206 16.76365101 -7.78149753 20.41950551 -10 24 C-10.75 22.3125 -10.75 22.3125 -11 20 C-10.13375 18.93265625 -10.13375 18.93265625 -9.25 17.84375 C-6.59462922 14.48765637 -4.98317179 11.07411915 -3.25 7.1875 C-2.93417969 6.49462891 -2.61835938 5.80175781 -2.29296875 5.08789062 C-1.52231755 3.39479329 -0.76026638 1.69778588 0 0 Z " fill="#BAEDD6" transform="translate(450,337)"/>
<path d="M0 0 C5.28137429 0.51525603 8.57221156 2.25477117 13 5 C10.34501768 6.0169313 9.30844625 6.13022151 6.640625 5.00390625 C5.85171875 4.52824219 5.0628125 4.05257813 4.25 3.5625 C3.45078125 3.08941406 2.6515625 2.61632812 1.828125 2.12890625 C1.22484375 1.75636719 0.6215625 1.38382812 0 1 C0 0.67 0 0.34 0 0 Z " fill="#A4E2D9" transform="translate(140,439)"/>
<path d="M0 0 C0 4.38968456 -2.12805101 5.76905739 -5 9 C-5.33 8.01 -5.66 7.02 -6 6 C-2.83636364 1.41818182 -2.83636364 1.41818182 0 0 Z " fill="#73D9B2" transform="translate(432,371)"/>
<path d="M0 0 C0.625 1.8125 0.625 1.8125 1 4 C0.01 5.485 0.01 5.485 -1 7 C-1.66 7 -2.32 7 -3 7 C-3 7.99 -3 8.98 -3 10 C-3.66 10 -4.32 10 -5 10 C-3.66511872 6.40608886 -2.03977277 3.24509304 0 0 Z " fill="#A8DAF7" transform="translate(69,128)"/>
<path d="M0 0 C-1.44253657 3.36591866 -3.33264727 5.51047079 -6 8 C-5.62403791 5.21788056 -5.32681541 3.4120716 -3.5625 1.1875 C-2 0 -2 0 0 0 Z " fill="#6ED7B0" transform="translate(420,388)"/>
</svg>
